<mxfile host="Electron" modified="2024-07-24T20:43:11.021Z" agent="Mozilla/5.0 (Windows NT 10.0; Win64; x64) AppleWebKit/537.36 (KHTML, like Gecko) draw.io/24.6.4 Chrome/124.0.6367.207 Electron/30.0.6 Safari/537.36" etag="pzpiLmxZkZCDkaOHAvrk" version="24.6.4" type="device">
  <diagram name="ページ1" id="LE8fIzdrHe0wcv1LTvfw">
    <mxGraphModel dx="2311" dy="1380" grid="1" gridSize="10" guides="1" tooltips="1" connect="1" arrows="1" fold="1" page="1" pageScale="1" pageWidth="1600" pageHeight="1200" math="0" shadow="0">
      <root>
        <mxCell id="0" />
        <mxCell id="cFaB45KztUIKXS-_cTrr-4" value="背景" style="locked=1;" parent="0" visible="0" />
        <mxCell id="cFaB45KztUIKXS-_cTrr-5" value="" style="rounded=0;whiteSpace=wrap;html=1;strokeWidth=3;" parent="cFaB45KztUIKXS-_cTrr-4" vertex="1">
          <mxGeometry x="1" y="1" width="1595" height="1180" as="geometry" />
        </mxCell>
        <mxCell id="cFaB45KztUIKXS-_cTrr-6" value="" style="rounded=0;whiteSpace=wrap;html=1;fillColor=#B3B3B3;fontColor=#333333;strokeColor=#666666;" parent="cFaB45KztUIKXS-_cTrr-4" vertex="1">
          <mxGeometry width="1595" height="60" as="geometry" />
        </mxCell>
        <mxCell id="cFaB45KztUIKXS-_cTrr-7" value="&lt;font style=&quot;font-size: 48px;&quot;&gt;×&lt;/font&gt;" style="rounded=0;whiteSpace=wrap;html=1;" parent="cFaB45KztUIKXS-_cTrr-4" vertex="1">
          <mxGeometry x="1550" y="10" width="40" height="40" as="geometry" />
        </mxCell>
        <mxCell id="cFaB45KztUIKXS-_cTrr-8" value="" style="rounded=0;whiteSpace=wrap;html=1;" parent="cFaB45KztUIKXS-_cTrr-4" vertex="1">
          <mxGeometry x="830" y="670" width="120" height="60" as="geometry" />
        </mxCell>
        <mxCell id="cFaB45KztUIKXS-_cTrr-9" value="ウインドウ" style="locked=1;" parent="0" />
        <mxCell id="cFaB45KztUIKXS-_cTrr-10" value="" style="rounded=0;whiteSpace=wrap;html=1;strokeWidth=3;" parent="cFaB45KztUIKXS-_cTrr-9" vertex="1">
          <mxGeometry x="15" y="10" width="1584" height="2380" as="geometry" />
        </mxCell>
        <mxCell id="cFaB45KztUIKXS-_cTrr-11" value="" style="rounded=0;whiteSpace=wrap;html=1;fillColor=#B3B3B3;fontColor=#333333;strokeColor=#666666;" parent="cFaB45KztUIKXS-_cTrr-9" vertex="1">
          <mxGeometry x="14" y="10" width="1586" height="60" as="geometry" />
        </mxCell>
        <mxCell id="cFaB45KztUIKXS-_cTrr-12" value="&lt;font style=&quot;font-size: 48px;&quot;&gt;×&lt;/font&gt;" style="rounded=0;whiteSpace=wrap;html=1;" parent="cFaB45KztUIKXS-_cTrr-9" vertex="1">
          <mxGeometry x="1554" y="20" width="40" height="40" as="geometry" />
        </mxCell>
        <mxCell id="cFaB45KztUIKXS-_cTrr-14" value="名称未設定レイヤ" style="" parent="0" />
        <mxCell id="HvR4dSRWBfD3urc1JDpB-8" value="&lt;span style=&quot;font-size: 30px;&quot;&gt;ユーザ登録&lt;/span&gt;" style="text;html=1;strokeColor=none;fillColor=none;align=left;verticalAlign=middle;whiteSpace=wrap;rounded=0;fontStyle=0" parent="cFaB45KztUIKXS-_cTrr-14" vertex="1">
          <mxGeometry x="54" y="105" width="1446" height="50" as="geometry" />
        </mxCell>
        <mxCell id="HvR4dSRWBfD3urc1JDpB-15" value="&lt;span style=&quot;font-size: 30px;&quot;&gt;更新&lt;/span&gt;" style="rounded=1;whiteSpace=wrap;html=1;fillColor=#CCCCCC;" parent="cFaB45KztUIKXS-_cTrr-14" vertex="1">
          <mxGeometry x="1344" y="1920" width="210" height="60" as="geometry" />
        </mxCell>
        <mxCell id="HvR4dSRWBfD3urc1JDpB-16" value="&lt;span style=&quot;font-size: 30px;&quot;&gt;キャンセル&lt;/span&gt;" style="rounded=1;whiteSpace=wrap;html=1;" parent="cFaB45KztUIKXS-_cTrr-14" vertex="1">
          <mxGeometry x="1094" y="1920" width="210" height="60" as="geometry" />
        </mxCell>
        <mxCell id="8Hxk6lD6Y1Y_H0gw2qUc-4" value="&lt;span style=&quot;font-size: 30px;&quot;&gt;アカウント&lt;/span&gt;" style="rounded=0;whiteSpace=wrap;html=1;align=right;dashed=1;dashPattern=8 8;verticalAlign=bottom;" parent="cFaB45KztUIKXS-_cTrr-14" vertex="1">
          <mxGeometry x="84" y="190" width="310" height="46" as="geometry" />
        </mxCell>
        <mxCell id="8Hxk6lD6Y1Y_H0gw2qUc-5" value="&lt;span style=&quot;font-size: 30px;&quot;&gt;abcde@hogehoge.net&lt;/span&gt;" style="rounded=0;whiteSpace=wrap;html=1;align=left;fillColor=default;" parent="cFaB45KztUIKXS-_cTrr-14" vertex="1">
          <mxGeometry x="414" y="188" width="566" height="48" as="geometry" />
        </mxCell>
        <mxCell id="dY589D1b4LM7EfKhKK_4-0" value="&lt;span style=&quot;font-size: 30px;&quot;&gt;団体役割登録&lt;/span&gt;" style="rounded=0;whiteSpace=wrap;html=1;align=right;dashed=1;dashPattern=8 8;verticalAlign=bottom;" vertex="1" parent="cFaB45KztUIKXS-_cTrr-14">
          <mxGeometry x="84" y="250" width="310" height="46" as="geometry" />
        </mxCell>
        <mxCell id="dY589D1b4LM7EfKhKK_4-2" value="&lt;span style=&quot;font-size: 30px;&quot;&gt;責任者で登録(あとで作業者から責任者に変更時にも情報追加が不要になります)&lt;/span&gt;" style="rounded=0;whiteSpace=wrap;html=1;align=left;dashed=1;dashPattern=8 8;verticalAlign=bottom;" vertex="1" parent="cFaB45KztUIKXS-_cTrr-14">
          <mxGeometry x="484" y="250" width="1096" height="46" as="geometry" />
        </mxCell>
        <mxCell id="dY589D1b4LM7EfKhKK_4-3" value="&lt;font style=&quot;font-size: 84px;&quot;&gt;○&lt;/font&gt;" style="text;html=1;strokeColor=none;fillColor=none;align=center;verticalAlign=middle;whiteSpace=wrap;rounded=0;fontSize=60;" vertex="1" parent="cFaB45KztUIKXS-_cTrr-14">
          <mxGeometry x="410" y="257" width="60" height="30" as="geometry" />
        </mxCell>
        <mxCell id="dY589D1b4LM7EfKhKK_4-4" value="&lt;font style=&quot;font-size: 48px;&quot;&gt;●&lt;/font&gt;" style="text;html=1;strokeColor=none;fillColor=none;align=center;verticalAlign=middle;whiteSpace=wrap;rounded=0;fontSize=48;" vertex="1" parent="cFaB45KztUIKXS-_cTrr-14">
          <mxGeometry x="410" y="259" width="60" height="30" as="geometry" />
        </mxCell>
        <mxCell id="dY589D1b4LM7EfKhKK_4-5" value="&lt;font style=&quot;font-size: 84px;&quot;&gt;○&lt;/font&gt;" style="text;html=1;strokeColor=none;fillColor=none;align=center;verticalAlign=middle;whiteSpace=wrap;rounded=0;fontSize=60;" vertex="1" parent="cFaB45KztUIKXS-_cTrr-14">
          <mxGeometry x="410" y="313" width="60" height="30" as="geometry" />
        </mxCell>
        <mxCell id="dY589D1b4LM7EfKhKK_4-7" value="&lt;span style=&quot;font-size: 30px;&quot;&gt;作業者&lt;/span&gt;" style="rounded=0;whiteSpace=wrap;html=1;align=left;dashed=1;dashPattern=8 8;verticalAlign=bottom;" vertex="1" parent="cFaB45KztUIKXS-_cTrr-14">
          <mxGeometry x="484" y="307" width="1096" height="46" as="geometry" />
        </mxCell>
        <mxCell id="dY589D1b4LM7EfKhKK_4-9" value="&lt;span style=&quot;font-size: 30px;&quot;&gt;姓名&lt;/span&gt;" style="rounded=0;whiteSpace=wrap;html=1;align=right;dashed=1;dashPattern=8 8;verticalAlign=bottom;" vertex="1" parent="cFaB45KztUIKXS-_cTrr-14">
          <mxGeometry x="84" y="398" width="310" height="46" as="geometry" />
        </mxCell>
        <mxCell id="dY589D1b4LM7EfKhKK_4-10" value="&lt;font style=&quot;font-size: 30px;&quot;&gt;せいじだんたい&lt;/font&gt;" style="rounded=0;whiteSpace=wrap;html=1;align=left;" vertex="1" parent="cFaB45KztUIKXS-_cTrr-14">
          <mxGeometry x="414" y="396" width="266" height="48" as="geometry" />
        </mxCell>
        <mxCell id="dY589D1b4LM7EfKhKK_4-11" value="&lt;span style=&quot;font-size: 30px;&quot;&gt;電話番号&lt;/span&gt;" style="rounded=0;whiteSpace=wrap;html=1;align=right;dashed=1;dashPattern=8 8;verticalAlign=bottom;" vertex="1" parent="cFaB45KztUIKXS-_cTrr-14">
          <mxGeometry x="84" y="535" width="310" height="46" as="geometry" />
        </mxCell>
        <mxCell id="dY589D1b4LM7EfKhKK_4-12" value="&lt;font style=&quot;font-size: 30px;&quot;&gt;090&lt;/font&gt;" style="rounded=0;whiteSpace=wrap;html=1;align=right;" vertex="1" parent="cFaB45KztUIKXS-_cTrr-14">
          <mxGeometry x="414" y="534" width="106" height="48" as="geometry" />
        </mxCell>
        <mxCell id="dY589D1b4LM7EfKhKK_4-13" value="&lt;span style=&quot;font-size: 30px;&quot;&gt;郵便番号&lt;/span&gt;" style="rounded=0;whiteSpace=wrap;html=1;align=right;dashed=1;dashPattern=8 8;verticalAlign=bottom;" vertex="1" parent="cFaB45KztUIKXS-_cTrr-14">
          <mxGeometry x="54" y="617" width="340" height="46" as="geometry" />
        </mxCell>
        <mxCell id="dY589D1b4LM7EfKhKK_4-14" value="&lt;span style=&quot;font-size: 30px;&quot;&gt;たろう&lt;/span&gt;" style="rounded=0;whiteSpace=wrap;html=1;align=left;" vertex="1" parent="cFaB45KztUIKXS-_cTrr-14">
          <mxGeometry x="724" y="396" width="266" height="48" as="geometry" />
        </mxCell>
        <mxCell id="dY589D1b4LM7EfKhKK_4-15" value="&lt;font style=&quot;font-size: 30px;&quot;&gt;政治団体&lt;/font&gt;" style="rounded=0;whiteSpace=wrap;html=1;align=left;" vertex="1" parent="cFaB45KztUIKXS-_cTrr-14">
          <mxGeometry x="414" y="466" width="266" height="48" as="geometry" />
        </mxCell>
        <mxCell id="dY589D1b4LM7EfKhKK_4-16" value="&lt;span style=&quot;font-size: 30px;&quot;&gt;太郎&lt;/span&gt;" style="rounded=0;whiteSpace=wrap;html=1;align=left;" vertex="1" parent="cFaB45KztUIKXS-_cTrr-14">
          <mxGeometry x="724" y="466" width="266" height="48" as="geometry" />
        </mxCell>
        <mxCell id="dY589D1b4LM7EfKhKK_4-17" value="&lt;span style=&quot;font-size: 30px;&quot;&gt;0090&lt;/span&gt;" style="rounded=0;whiteSpace=wrap;html=1;align=right;" vertex="1" parent="cFaB45KztUIKXS-_cTrr-14">
          <mxGeometry x="604" y="534" width="106" height="48" as="geometry" />
        </mxCell>
        <mxCell id="dY589D1b4LM7EfKhKK_4-18" value="&lt;font style=&quot;font-size: 30px;&quot;&gt;xxxx&lt;/font&gt;" style="rounded=0;whiteSpace=wrap;html=1;align=right;" vertex="1" parent="cFaB45KztUIKXS-_cTrr-14">
          <mxGeometry x="824" y="534" width="106" height="48" as="geometry" />
        </mxCell>
        <mxCell id="dY589D1b4LM7EfKhKK_4-19" value="&lt;span style=&quot;font-size: 30px;&quot;&gt;－&lt;/span&gt;" style="rounded=0;whiteSpace=wrap;html=1;align=left;dashed=1;dashPattern=8 8;verticalAlign=bottom;" vertex="1" parent="cFaB45KztUIKXS-_cTrr-14">
          <mxGeometry x="533" y="536" width="66" height="46" as="geometry" />
        </mxCell>
        <mxCell id="dY589D1b4LM7EfKhKK_4-20" value="&lt;span style=&quot;font-size: 30px;&quot;&gt;－&lt;/span&gt;" style="rounded=0;whiteSpace=wrap;html=1;align=left;dashed=1;dashPattern=8 8;verticalAlign=bottom;" vertex="1" parent="cFaB45KztUIKXS-_cTrr-14">
          <mxGeometry x="733" y="536" width="66" height="46" as="geometry" />
        </mxCell>
        <mxCell id="dY589D1b4LM7EfKhKK_4-21" value="&lt;font style=&quot;font-size: 30px;&quot;&gt;123&lt;/font&gt;" style="rounded=0;whiteSpace=wrap;html=1;align=right;" vertex="1" parent="cFaB45KztUIKXS-_cTrr-14">
          <mxGeometry x="414" y="614" width="106" height="48" as="geometry" />
        </mxCell>
        <mxCell id="dY589D1b4LM7EfKhKK_4-22" value="&lt;font style=&quot;font-size: 30px;&quot;&gt;4567&lt;/font&gt;" style="rounded=0;whiteSpace=wrap;html=1;align=right;" vertex="1" parent="cFaB45KztUIKXS-_cTrr-14">
          <mxGeometry x="604" y="614" width="106" height="48" as="geometry" />
        </mxCell>
        <mxCell id="dY589D1b4LM7EfKhKK_4-23" value="&lt;span style=&quot;font-size: 30px;&quot;&gt;－&lt;/span&gt;" style="rounded=0;whiteSpace=wrap;html=1;align=left;dashed=1;dashPattern=8 8;verticalAlign=bottom;" vertex="1" parent="cFaB45KztUIKXS-_cTrr-14">
          <mxGeometry x="533" y="616" width="66" height="46" as="geometry" />
        </mxCell>
        <mxCell id="dY589D1b4LM7EfKhKK_4-24" value="&lt;span style=&quot;font-size: 30px;&quot;&gt;住所&lt;/span&gt;" style="rounded=0;whiteSpace=wrap;html=1;align=right;dashed=1;dashPattern=8 8;verticalAlign=bottom;" vertex="1" parent="cFaB45KztUIKXS-_cTrr-14">
          <mxGeometry x="84" y="688" width="310" height="46" as="geometry" />
        </mxCell>
        <mxCell id="dY589D1b4LM7EfKhKK_4-25" value="&lt;font style=&quot;font-size: 30px;&quot;&gt;宮崎県架空市実在町&lt;/font&gt;" style="rounded=0;whiteSpace=wrap;html=1;align=left;verticalAlign=top;" vertex="1" parent="cFaB45KztUIKXS-_cTrr-14">
          <mxGeometry x="413" y="688" width="1036" height="84" as="geometry" />
        </mxCell>
        <mxCell id="dY589D1b4LM7EfKhKK_4-26" value="&lt;font style=&quot;font-size: 30px;&quot;&gt;1967番地&lt;/font&gt;" style="rounded=0;whiteSpace=wrap;html=1;align=left;verticalAlign=top;" vertex="1" parent="cFaB45KztUIKXS-_cTrr-14">
          <mxGeometry x="414" y="806" width="1036" height="84" as="geometry" />
        </mxCell>
        <mxCell id="dY589D1b4LM7EfKhKK_4-27" value="&lt;font style=&quot;font-size: 30px;&quot;&gt;八角形ビル&lt;/font&gt;" style="rounded=0;whiteSpace=wrap;html=1;align=left;verticalAlign=top;" vertex="1" parent="cFaB45KztUIKXS-_cTrr-14">
          <mxGeometry x="414" y="926" width="1036" height="84" as="geometry" />
        </mxCell>
        <mxCell id="dY589D1b4LM7EfKhKK_4-28" value="&lt;span style=&quot;font-size: 30px;&quot;&gt;生年月日&lt;/span&gt;" style="rounded=0;whiteSpace=wrap;html=1;align=right;dashed=1;dashPattern=8 8;verticalAlign=bottom;" vertex="1" parent="cFaB45KztUIKXS-_cTrr-14">
          <mxGeometry x="84" y="1038" width="310" height="46" as="geometry" />
        </mxCell>
        <mxCell id="dY589D1b4LM7EfKhKK_4-29" value="&lt;font style=&quot;font-size: 30px;&quot;&gt;1986/03/21&lt;/font&gt;" style="rounded=0;whiteSpace=wrap;html=1;align=left;" vertex="1" parent="cFaB45KztUIKXS-_cTrr-14">
          <mxGeometry x="414" y="1036" width="450" height="48" as="geometry" />
        </mxCell>
        <mxCell id="dY589D1b4LM7EfKhKK_4-30" value="&lt;span style=&quot;font-size: 30px;&quot;&gt;たろう&lt;/span&gt;" style="rounded=0;whiteSpace=wrap;html=1;align=left;" vertex="1" parent="cFaB45KztUIKXS-_cTrr-14">
          <mxGeometry x="1044" y="396" width="266" height="48" as="geometry" />
        </mxCell>
        <mxCell id="dY589D1b4LM7EfKhKK_4-31" value="&lt;span style=&quot;font-size: 30px;&quot;&gt;太郎&lt;/span&gt;" style="rounded=0;whiteSpace=wrap;html=1;align=left;" vertex="1" parent="cFaB45KztUIKXS-_cTrr-14">
          <mxGeometry x="1044" y="466" width="266" height="48" as="geometry" />
        </mxCell>
        <mxCell id="dY589D1b4LM7EfKhKK_4-32" value="&lt;span style=&quot;font-size: 30px;&quot;&gt;SNS&lt;/span&gt;" style="text;html=1;strokeColor=none;fillColor=none;align=left;verticalAlign=middle;whiteSpace=wrap;rounded=0;fontStyle=0" vertex="1" parent="cFaB45KztUIKXS-_cTrr-14">
          <mxGeometry x="54" y="1125" width="1446" height="50" as="geometry" />
        </mxCell>
      </root>
    </mxGraphModel>
  </diagram>
</mxfile>
